# xmcd
#
# Track frame offsets:
# 150
# 2946
# 10617
# 26222
# 35578
# 46038
# 60210
# 73188
# 83733
# 99687
# 113307
# 122572
# 132159
#
# Disc length: 1911 seconds
#
#
# Revision: 0
# Processed by: cddbd v1.5.2PL0 Copyright (c) Steve Scherf et al.
# Submitted via: FreeRIP 2.944 
#
DISCID=9907750d
DTITLE=Years Spent Cold - Moving Heaven to Hell
DYEAR=2008
DGENRE=
TTITLE0=Intro
TTITLE1=Ear to Ear
TTITLE2=Moving Heaven to Hell
TTITLE3=Retribution
TTITLE4=Breaking all Ties
TTITLE5=No one misses you
TTITLE6=Coming up Roses
TTITLE7=End your Life
TTITLE8=Abandon all Hope
TTITLE9=We set Fire
TTITLE10=Lifeless
TTITLE11=Turncoat
TTITLE12=Toy Soldier
EXTD=Eulogy Recordings
EXTT0=
EXTT1=
EXTT2=
EXTT3=
EXTT4=
EXTT5=
EXTT6=
EXTT7=
EXTT8=
EXTT9=
EXTT10=
EXTT11=
EXTT12=
PLAYORDER=
